<?xml version="1.0" encoding="utf-8"?>
<!-- Generator: Adobe Illustrator 23.0.1, SVG Export Plug-In . SVG Version: 6.00 Build 0)  -->
<svg version="1.1" id="Layer_1" xmlns="http://www.w3.org/2000/svg" xmlns:xlink="http://www.w3.org/1999/xlink" x="0px" y="0px"
	 viewBox="0 0 653 113" style="enable-background:new 0 0 653 113;" xml:space="preserve">
<style type="text/css">
	.st0{display:none;}
	.st1{display:inline;fill:url(#SVGID_1_);}
	.st2{display:none;fill:url(#SVGID_2_);}
	.st3{fill:url(#SVGID_3_);}
	.st4{fill:url(#SVGID_4_);}
	.st5{display:inline;fill:url(#SVGID_5_);}
	.st6{display:inline;fill:url(#SVGID_6_);}
	.st7{display:inline;fill:url(#SVGID_7_);}
	.st8{display:inline;fill:url(#SVGID_8_);}
</style>
<g id="BackHalf" class="st0">
	
		<linearGradient id="SVGID_1_" gradientUnits="userSpaceOnUse" x1="798.4271" y1="-43.4453" x2="807.7287" y2="22.7394" gradientTransform="matrix(1 0 0 -1 0 114)">
		<stop  offset="0" style="stop-color:#B3B3B3"/>
		<stop  offset="0.2574" style="stop-color:#808080"/>
		<stop  offset="0.4584" style="stop-color:#DEDEDE"/>
		<stop  offset="0.4993" style="stop-color:#F2F2F2"/>
		<stop  offset="0.6983" style="stop-color:#A4A4A4"/>
		<stop  offset="1" style="stop-color:#666666"/>
	</linearGradient>
	<path class="st1" d="M799.5,160c0,0-38-27-53-32l-54-14l-47-8l2-18l51,7l57-1c16,1,54-11,59-12s5,30,5,30l138,19c0,0,9,7,0,18
		l-142-16C815.5,133,812.5,148,799.5,160z"/>
</g>
<g>
	
		<linearGradient id="SVGID_2_" gradientUnits="userSpaceOnUse" x1="37.1224" y1="72.8428" x2="43.7192" y2="119.7815" gradientTransform="matrix(1 0 0 -1 0 114)">
		<stop  offset="0" style="stop-color:#B3B3B3"/>
		<stop  offset="0.2574" style="stop-color:#808080"/>
		<stop  offset="0.4584" style="stop-color:#DEDEDE"/>
		<stop  offset="0.4993" style="stop-color:#F2F2F2"/>
		<stop  offset="0.767" style="stop-color:#A4A4A4"/>
		<stop  offset="1" style="stop-color:#666666"/>
	</linearGradient>
	<path class="st2" d="M3.5,10c0,2.5,27.9,8.3,72.1,15.8l3.3-11.5C32.8,9.5,3.5,7.4,3.5,10z"/>
	<g>
		<g>
			
				<linearGradient id="SVGID_3_" gradientUnits="userSpaceOnUse" x1="149.3267" y1="57.0735" x2="155.9235" y2="104.0122" gradientTransform="matrix(1 0 0 -1 0 114)">
				<stop  offset="0" style="stop-color:#B3B3B3"/>
				<stop  offset="0.2574" style="stop-color:#808080"/>
				<stop  offset="0.4584" style="stop-color:#DEDEDE"/>
				<stop  offset="0.4993" style="stop-color:#F2F2F2"/>
				<stop  offset="0.767" style="stop-color:#A4A4A4"/>
				<stop  offset="1" style="stop-color:#666666"/>
			</linearGradient>
			<path class="st3" d="M128.7,19.9l-3,14.1c16.2,2.6,33.5,5.2,51.7,8l3.2-15.9C162.4,23.9,145,21.8,128.7,19.9z"/>
			
				<linearGradient id="SVGID_4_" gradientUnits="userSpaceOnUse" x1="98.3785" y1="64.2338" x2="104.9753" y2="111.1725" gradientTransform="matrix(1 0 0 -1 0 114)">
				<stop  offset="0" style="stop-color:#B3B3B3"/>
				<stop  offset="0.2574" style="stop-color:#808080"/>
				<stop  offset="0.4584" style="stop-color:#DEDEDE"/>
				<stop  offset="0.4993" style="stop-color:#F2F2F2"/>
				<stop  offset="0.767" style="stop-color:#A4A4A4"/>
				<stop  offset="1" style="stop-color:#666666"/>
			</linearGradient>
			<path class="st4" d="M78.9,14.4l-3.3,11.5c15,2.5,31.8,5.3,50.1,8.2l3-14.1C110.6,17.8,93.8,15.9,78.9,14.4z"/>
		</g>
		<g class="st0">
			
				<linearGradient id="SVGID_5_" gradientUnits="userSpaceOnUse" x1="200.6287" y1="49.8635" x2="207.2255" y2="96.8022" gradientTransform="matrix(1 0 0 -1 0 114)">
				<stop  offset="0" style="stop-color:#B3B3B3"/>
				<stop  offset="0.2574" style="stop-color:#808080"/>
				<stop  offset="0.4584" style="stop-color:#DEDEDE"/>
				<stop  offset="0.4993" style="stop-color:#F2F2F2"/>
				<stop  offset="0.767" style="stop-color:#A4A4A4"/>
				<stop  offset="1" style="stop-color:#666666"/>
			</linearGradient>
			<path class="st5" d="M180.5,26.1L177.4,42c16.6,2.5,33.9,5.1,51.7,7.7l2.3-17.3C213.9,30.2,196.9,28.1,180.5,26.1z"/>
			
				<linearGradient id="SVGID_6_" gradientUnits="userSpaceOnUse" x1="279.2014" y1="38.8208" x2="285.7982" y2="85.7595" gradientTransform="matrix(1 0 0 -1 0 114)">
				<stop  offset="0" style="stop-color:#B3B3B3"/>
				<stop  offset="0.2574" style="stop-color:#808080"/>
				<stop  offset="0.4584" style="stop-color:#DEDEDE"/>
				<stop  offset="0.4993" style="stop-color:#F2F2F2"/>
				<stop  offset="0.767" style="stop-color:#A4A4A4"/>
				<stop  offset="1" style="stop-color:#666666"/>
			</linearGradient>
			<path class="st6" d="M231.4,32.4L229,49.7c34.1,5,69.7,10.2,105.2,15.2l2.9-18.9C301.5,41.3,265.6,36.7,231.4,32.4z"/>
		</g>
		<g class="st0">
			
				<linearGradient id="SVGID_7_" gradientUnits="userSpaceOnUse" x1="418.563" y1="19.2348" x2="425.1598" y2="66.1735" gradientTransform="matrix(1 0 0 -1 0 114)">
				<stop  offset="0" style="stop-color:#B3B3B3"/>
				<stop  offset="0.2574" style="stop-color:#808080"/>
				<stop  offset="0.4584" style="stop-color:#DEDEDE"/>
				<stop  offset="0.4993" style="stop-color:#F2F2F2"/>
				<stop  offset="0.767" style="stop-color:#A4A4A4"/>
				<stop  offset="1" style="stop-color:#666666"/>
			</linearGradient>
			<path class="st7" d="M337.2,46l-2.9,18.9c61.3,8.7,122.1,17,173.6,23.9l2.8-19.7C459.3,62.1,398.5,54,337.2,46z"/>
			
				<linearGradient id="SVGID_8_" gradientUnits="userSpaceOnUse" x1="574.4876" y1="-2.679" x2="581.0844" y2="44.2597" gradientTransform="matrix(1 0 0 -1 0 114)">
				<stop  offset="0" style="stop-color:#B3B3B3"/>
				<stop  offset="0.2574" style="stop-color:#808080"/>
				<stop  offset="0.4584" style="stop-color:#DEDEDE"/>
				<stop  offset="0.4993" style="stop-color:#F2F2F2"/>
				<stop  offset="0.767" style="stop-color:#A4A4A4"/>
				<stop  offset="1" style="stop-color:#666666"/>
			</linearGradient>
			<path class="st8" d="M648.5,88c0,0-57.4-8-137.9-18.9l-2.8,19.7C584.7,99,640.7,106,646.5,106L648.5,88z"/>
		</g>
	</g>
</g>
</svg>
