<svg id="Layer_1" data-name="Layer 1" xmlns="http://www.w3.org/2000/svg" viewBox="0 0 1116 126"><defs><style>.cls-1{fill:#dbcfa9;}.cls-2{fill:#efe4c5;}.cls-3{fill:#ada38a;}</style></defs><title>cobbles</title><rect class="cls-1" width="1116" height="126"/><rect class="cls-2" x="168" y="28" width="106" height="70" rx="12" ry="12"/><rect class="cls-2" x="362" y="52.73" width="106" height="70" rx="12" ry="12"/><rect class="cls-2" x="547.75" y="35" width="106" height="70" rx="12" ry="12"/><rect class="cls-2" x="718" y="52.73" width="106" height="70" rx="12" ry="12"/><rect class="cls-2" x="897.75" y="1" width="106" height="70" rx="12" ry="12"/><rect class="cls-2" x="28" width="106" height="70" rx="12" ry="12"/><rect class="cls-3" x="80" y="42" width="72" height="32" rx="12" ry="12"/><rect class="cls-3" x="245.05" y="16" width="72" height="32" rx="12" ry="12"/><rect class="cls-3" x="460" y="71.73" width="72" height="32" rx="12" ry="12"/><rect class="cls-3" x="149" y="87.73" width="72" height="32" rx="12" ry="12"/><rect class="cls-3" x="511.75" y="19" width="72" height="32" rx="12" ry="12"/><rect class="cls-3" x="682" y="54" width="72" height="32" rx="12" ry="12"/><rect class="cls-3" x="825.75" y="16" width="72" height="32" rx="12" ry="12"/><rect class="cls-3" x="1003.75" y="86" width="72" height="32" rx="12" ry="12"/><rect class="cls-3" x="699" width="72" height="32" rx="12" ry="12"/></svg>