<?xml version="1.0" encoding="utf-8"?>
<!-- Generator: Adobe Illustrator 22.1.0, SVG Export Plug-In . SVG Version: 6.00 Build 0)  -->
<svg version="1.1" xmlns="http://www.w3.org/2000/svg" xmlns:xlink="http://www.w3.org/1999/xlink" x="0px" y="0px"
	 viewBox="0 0 648 113" style="enable-background:new 0 0 648 113;" xml:space="preserve">
<style type="text/css">
	.st0{display:none;}
	.st1{display:inline;fill:url(#SVGID_1_);}
	.st2{display:inline;fill:#C69C6D;}
	.st3{fill:url(#SVGID_2_);}
</style>
<g id="BackHalf" class="st0">
	<linearGradient id="SVGID_1_" gradientUnits="userSpaceOnUse" x1="796.9086" y1="157.4453" x2="806.2102" y2="91.2606">
		<stop  offset="0" style="stop-color:#B3B3B3"/>
		<stop  offset="0.2574" style="stop-color:#808080"/>
		<stop  offset="0.4584" style="stop-color:#DEDEDE"/>
		<stop  offset="0.4993" style="stop-color:#F2F2F2"/>
		<stop  offset="0.6983" style="stop-color:#A4A4A4"/>
		<stop  offset="1" style="stop-color:#666666"/>
	</linearGradient>
	<path class="st1" d="M798,160c0,0-38-27-53-32l-54-14l-47-8l2-18l51,7l57-1c16,1,54-11,59-12s5,30,5,30l138,19c0,0,9,7,0,18
		l-142-16C814,133,811,148,798,160z"/>
</g>
<g id="FrontHalf">
	<linearGradient id="SVGID_2_" gradientUnits="userSpaceOnUse" x1="320.2433" y1="81.1607" x2="326.8401" y2="34.222">
		<stop  offset="0" style="stop-color:#B3B3B3"/>
		<stop  offset="0.2574" style="stop-color:#808080"/>
		<stop  offset="0.4584" style="stop-color:#DEDEDE"/>
		<stop  offset="0.4993" style="stop-color:#F2F2F2"/>
		<stop  offset="0.767" style="stop-color:#A4A4A4"/>
		<stop  offset="1" style="stop-color:#666666"/>
	</linearGradient>
	<path class="st3" d="M645,106l2-18C647,88,2-2,2,10S625,106,645,106z"/>
</g>
</svg>
