<?xml version="1.0" encoding="utf-8"?>
<!-- Generator: Adobe Illustrator 22.1.0, SVG Export Plug-In . SVG Version: 6.00 Build 0)  -->
<svg version="1.1" id="Layer_1" xmlns="http://www.w3.org/2000/svg" xmlns:xlink="http://www.w3.org/1999/xlink" x="0px" y="0px"
	 viewBox="0 0 800 600" style="enable-background:new 0 0 800 600;" xml:space="preserve">
<style type="text/css">
	.st0{display:none;}
	.st1{display:inline;fill:url(#SVGID_1_);stroke:#000000;stroke-miterlimit:10;}
	.st2{display:inline;fill:url(#SVGID_2_);stroke:#000000;stroke-miterlimit:10;}
	.st3{display:inline;fill:url(#SVGID_3_);stroke:#000000;stroke-miterlimit:10;}
	.st4{display:inline;fill:url(#SVGID_4_);stroke:#000000;stroke-miterlimit:10;}
	.st5{display:inline;fill:url(#SVGID_5_);stroke:#000000;stroke-miterlimit:10;}
	.st6{display:inline;fill:url(#SVGID_6_);stroke:#000000;stroke-miterlimit:10;}
	.st7{display:inline;}
	.st8{fill:url(#SVGID_7_);stroke:#000000;stroke-miterlimit:10;}
	.st9{fill:url(#SVGID_8_);stroke:#000000;stroke-miterlimit:10;}
	.st10{display:none;fill:url(#SVGID_9_);stroke:#000000;stroke-miterlimit:10;}
	.st11{display:none;fill:url(#SVGID_10_);stroke:#000000;stroke-miterlimit:10;}
	.st12{fill:url(#SVGID_11_);stroke:#000000;stroke-miterlimit:10;}
	.st13{fill:url(#SVGID_12_);stroke:#000000;stroke-miterlimit:10;}
	.st14{display:inline;fill:url(#SVGID_13_);stroke:#000000;stroke-miterlimit:10;}
	.st15{display:inline;fill:url(#SVGID_14_);stroke:#000000;stroke-miterlimit:10;}
	.st16{fill:url(#SVGID_15_);stroke:#000000;stroke-miterlimit:10;}
	.st17{fill:url(#SVGID_16_);stroke:#000000;stroke-miterlimit:10;}
	.st18{fill:url(#SVGID_17_);stroke:#000000;stroke-miterlimit:10;}
	.st19{fill:url(#SVGID_18_);stroke:#000000;stroke-miterlimit:10;}
	.st20{display:inline;fill:url(#SVGID_19_);stroke:#000000;stroke-miterlimit:10;}
	.st21{display:inline;fill:url(#SVGID_20_);stroke:#000000;stroke-miterlimit:10;}
	.st22{fill:url(#SVGID_21_);stroke:#000000;stroke-miterlimit:10;}
	.st23{fill:url(#SVGID_22_);stroke:#000000;stroke-miterlimit:10;}
	.st24{fill:url(#SVGID_23_);stroke:#000000;stroke-miterlimit:10;}
	.st25{fill:url(#SVGID_24_);stroke:#000000;stroke-miterlimit:10;}
</style>
<g class="st0">
	<linearGradient id="SVGID_1_" gradientUnits="userSpaceOnUse" x1="364.7742" y1="55.9821" x2="423.0398" y2="89.3745">
		<stop  offset="0" style="stop-color:#545557"/>
		<stop  offset="0.3347" style="stop-color:#FFFFFF"/>
		<stop  offset="0.586" style="stop-color:#808184"/>
		<stop  offset="0.814" style="stop-color:#9C9C9C"/>
		<stop  offset="1" style="stop-color:#505050"/>
	</linearGradient>
	<path class="st1" d="M383.8,32c-15.4,1.2-26.7,35.6-26.7,35.6s3,35.6,16.6,45c0,0,1.8,9.5,40.3-4.7c0,0,13.6-35.6,9.5-50.4
		c0,0-13-19.6-15.4-20.1c-2.4-0.6-4.5-18.1-14.2-13.6C385,27.8,383.8,32,383.8,32z"/>
	<linearGradient id="SVGID_2_" gradientUnits="userSpaceOnUse" x1="370.1447" y1="45.2575" x2="420.0739" y2="73.8723">
		<stop  offset="0" style="stop-color:#545557"/>
		<stop  offset="0.3347" style="stop-color:#FFFFFF"/>
		<stop  offset="0.586" style="stop-color:#808184"/>
		<stop  offset="0.814" style="stop-color:#9C9C9C"/>
		<stop  offset="1" style="stop-color:#505050"/>
	</linearGradient>
	<path class="st2" d="M357.1,67.5c0,0,15.3,13,66.9,1.8c0,0,4.8-15.4-15.9-32C408.1,37.3,374.3,12.4,357.1,67.5z"/>
	<linearGradient id="SVGID_3_" gradientUnits="userSpaceOnUse" x1="359.7458" y1="68.7804" x2="416.3097" y2="101.1975">
		<stop  offset="0" style="stop-color:#545557"/>
		<stop  offset="0.3347" style="stop-color:#FFFFFF"/>
		<stop  offset="0.586" style="stop-color:#808184"/>
		<stop  offset="0.814" style="stop-color:#9C9C9C"/>
		<stop  offset="1" style="stop-color:#505050"/>
	</linearGradient>
	<path class="st3" d="M357.1,67.5c0,0-0.7,10.1,66.9,1.8l-10,38.5c0,0-38.3,24.2-49.1-7.2C362.5,93.3,354.9,81.8,357.1,67.5z"/>
	<linearGradient id="SVGID_4_" gradientUnits="userSpaceOnUse" x1="373.1626" y1="112.8461" x2="415.4669" y2="137.0909">
		<stop  offset="0" style="stop-color:#545557"/>
		<stop  offset="0.3347" style="stop-color:#FFFFFF"/>
		<stop  offset="0.586" style="stop-color:#808184"/>
		<stop  offset="0.814" style="stop-color:#9C9C9C"/>
		<stop  offset="1" style="stop-color:#505050"/>
	</linearGradient>
	<path class="st4" d="M371.6,111.4l-9.5,16.3c0,0,0,15.7,24.3,15.1c24.3-0.6,37.6-18.7,37.6-18.7l-10-16.3
		C414,107.8,382,121.2,371.6,111.4z"/>
</g>
<g class="st0">
	
		<linearGradient id="SVGID_5_" gradientUnits="userSpaceOnUse" x1="410.8903" y1="266.8647" x2="343.0728" y2="305.7313" gradientTransform="matrix(0.9997 2.380587e-02 -2.380587e-02 0.9997 5.3826 -9.3158)">
		<stop  offset="0" style="stop-color:#545557"/>
		<stop  offset="0.3347" style="stop-color:#FFFFFF"/>
		<stop  offset="0.586" style="stop-color:#808184"/>
		<stop  offset="0.814" style="stop-color:#9C9C9C"/>
		<stop  offset="1" style="stop-color:#505050"/>
	</linearGradient>
	<polygon class="st5" points="375.5,320.5 338.6,303.3 368.5,244.2 406.2,253.3 415.2,309.8 	"/>
	
		<linearGradient id="SVGID_6_" gradientUnits="userSpaceOnUse" x1="447.1214" y1="253.9633" x2="332.5386" y2="319.6314" gradientTransform="matrix(0.9997 2.380587e-02 -2.380587e-02 0.9997 5.3826 -9.3158)">
		<stop  offset="0" style="stop-color:#545557"/>
		<stop  offset="0.3347" style="stop-color:#FFFFFF"/>
		<stop  offset="0.586" style="stop-color:#808184"/>
		<stop  offset="0.814" style="stop-color:#9C9C9C"/>
		<stop  offset="1" style="stop-color:#505050"/>
	</linearGradient>
	<path class="st6" d="M351.3,316.6c0,0,0.8-61.6,25.6-57.5c24.9,4.1,24.4,58.7,24.4,58.7s35.6,14,54.8,4.6
		c19.2-9.4-13.2-85.7-13.2-85.7l-92.2-2.2c0,0-33.9,38-28.3,74.9C322.4,309.4,329.3,320.8,351.3,316.6z"/>
	<g class="st7">
		
			<linearGradient id="SVGID_7_" gradientUnits="userSpaceOnUse" x1="456.2055" y1="149.6141" x2="340.914" y2="215.6884" gradientTransform="matrix(0.9997 2.380587e-02 -2.380587e-02 0.9997 5.3826 -9.3158)">
			<stop  offset="0" style="stop-color:#545557"/>
			<stop  offset="0.3347" style="stop-color:#FFFFFF"/>
			<stop  offset="0.586" style="stop-color:#808184"/>
			<stop  offset="0.814" style="stop-color:#9C9C9C"/>
			<stop  offset="1" style="stop-color:#505050"/>
		</linearGradient>
		<path class="st8" d="M351.9,240.2c0,0-24.1-105.8,2.8-115.8s77.6-7.1,98.5,5.7c0,0-4.4,110.6-10.8,112.2
			C436,243.9,368.2,256,351.9,240.2z"/>
		
			<linearGradient id="SVGID_8_" gradientUnits="userSpaceOnUse" x1="460.9397" y1="155.3862" x2="369.9387" y2="207.5394" gradientTransform="matrix(0.9997 2.380587e-02 -2.380587e-02 0.9997 5.3826 -9.3158)">
			<stop  offset="0" style="stop-color:#545557"/>
			<stop  offset="0.3347" style="stop-color:#FFFFFF"/>
			<stop  offset="0.586" style="stop-color:#808184"/>
			<stop  offset="0.814" style="stop-color:#9C9C9C"/>
			<stop  offset="1" style="stop-color:#505050"/>
		</linearGradient>
		<path class="st9" d="M392.8,120.4c0,0-17.7,85.4-2.6,127.8l52.2-5.9l10.8-112.2C453.2,130.1,403.7,113.1,392.8,120.4z"/>
	</g>
</g>
<g>
	<linearGradient id="SVGID_9_" gradientUnits="userSpaceOnUse" x1="444.7592" y1="192.536" x2="492.3374" y2="219.8034">
		<stop  offset="0" style="stop-color:#545557"/>
		<stop  offset="0.3347" style="stop-color:#FFFFFF"/>
		<stop  offset="0.586" style="stop-color:#808184"/>
		<stop  offset="0.814" style="stop-color:#9C9C9C"/>
		<stop  offset="1" style="stop-color:#505050"/>
	</linearGradient>
	<path class="st10" d="M448.4,181.3c0,0-5.2,55.2,13.6,72.3c18.9,17.1,23-43.9,23-43.9l-14.4-53.9L448.4,181.3z"/>
	<linearGradient id="SVGID_10_" gradientUnits="userSpaceOnUse" x1="405.243" y1="144.5247" x2="464.7335" y2="178.6191">
		<stop  offset="0" style="stop-color:#545557"/>
		<stop  offset="0.3347" style="stop-color:#FFFFFF"/>
		<stop  offset="0.586" style="stop-color:#808184"/>
		<stop  offset="0.814" style="stop-color:#9C9C9C"/>
		<stop  offset="1" style="stop-color:#505050"/>
	</linearGradient>
	<path class="st11" d="M424,120.7c0,0-8.3-2.3-12.8,7.4c-9.3,20.1-15.1,61.4,13.3,68.2c0,0,22.5,6.1,31.3-6.8c0,0-3.4-20.3,10.1-27
		l8.8,1.4C474.8,163.9,473.3,126.1,424,120.7z"/>
	<g>
		<linearGradient id="SVGID_11_" gradientUnits="userSpaceOnUse" x1="472.5597" y1="207.7739" x2="490.914" y2="218.2929">
			<stop  offset="0" style="stop-color:#545557"/>
			<stop  offset="0.3347" style="stop-color:#FFFFFF"/>
			<stop  offset="0.586" style="stop-color:#808184"/>
			<stop  offset="0.814" style="stop-color:#9C9C9C"/>
			<stop  offset="1" style="stop-color:#505050"/>
		</linearGradient>
		<path class="st12" d="M481.5,190.3l-10.8,20.9l10.8,24.3C481.5,235.5,489.5,223.7,481.5,190.3z"/>
		<linearGradient id="SVGID_12_" gradientUnits="userSpaceOnUse" x1="436.4851" y1="267.5161" x2="487.9036" y2="296.9844">
			<stop  offset="0" style="stop-color:#545557"/>
			<stop  offset="0.3347" style="stop-color:#FFFFFF"/>
			<stop  offset="0.586" style="stop-color:#808184"/>
			<stop  offset="0.814" style="stop-color:#9C9C9C"/>
			<stop  offset="1" style="stop-color:#505050"/>
		</linearGradient>
		<path class="st13" d="M449.1,240.3l31.1-7.8l10.8,13.9c0,0-16.9,43.1-20.3,43.2c0,0,6.3,55.6-12.8,50.1c0,0-7.8-1.2-8-18.3
			c-0.1-5.4,0.6-12.3,2.6-21.3l-4.5,22.9l-2.9-0.2c0,0-7.4-24.5,5.4-33.2L449.1,240.3z"/>
	</g>
</g>
<g class="st0">
	
		<linearGradient id="SVGID_13_" gradientUnits="userSpaceOnUse" x1="292.0758" y1="186.2739" x2="335.5218" y2="211.1731" gradientTransform="matrix(-1 0 0 1 626.9286 0)">
		<stop  offset="0" style="stop-color:#545557"/>
		<stop  offset="0.3347" style="stop-color:#FFFFFF"/>
		<stop  offset="0.586" style="stop-color:#808184"/>
		<stop  offset="0.814" style="stop-color:#9C9C9C"/>
		<stop  offset="1" style="stop-color:#505050"/>
	</linearGradient>
	<path class="st14" d="M331.5,176c0,0,4.8,50.4-12.4,66s-21-40-21-40l13.1-49.2L331.5,176z"/>
	
		<linearGradient id="SVGID_14_" gradientUnits="userSpaceOnUse" x1="255.9917" y1="142.4324" x2="310.3154" y2="173.5657" gradientTransform="matrix(-1 0 0 1 626.9286 0)">
		<stop  offset="0" style="stop-color:#545557"/>
		<stop  offset="0.3347" style="stop-color:#FFFFFF"/>
		<stop  offset="0.586" style="stop-color:#808184"/>
		<stop  offset="0.814" style="stop-color:#9C9C9C"/>
		<stop  offset="1" style="stop-color:#505050"/>
	</linearGradient>
	<path class="st15" d="M353.8,120.7c0,0,7.6-2.1,11.7,6.8c8.5,18.4,13.8,56.1-12.1,62.3c0,0-20.6,5.6-28.6-6.2
		c0,0,3.1-18.5-9.3-24.7l-8,1.2C307.5,160.1,308.8,125.6,353.8,120.7z"/>
	<g class="st7">
		
			<linearGradient id="SVGID_15_" gradientUnits="userSpaceOnUse" x1="317.4618" y1="200.1883" x2="334.222" y2="209.7937" gradientTransform="matrix(-1 0 0 1 626.9286 0)">
			<stop  offset="0" style="stop-color:#545557"/>
			<stop  offset="0.3347" style="stop-color:#FFFFFF"/>
			<stop  offset="0.586" style="stop-color:#808184"/>
			<stop  offset="0.814" style="stop-color:#9C9C9C"/>
			<stop  offset="1" style="stop-color:#505050"/>
		</linearGradient>
		<path class="st16" d="M301.3,184.2l9.9,19.1l-9.9,22.2C301.3,225.5,294,214.7,301.3,184.2z"/>
		
			<linearGradient id="SVGID_16_" gradientUnits="userSpaceOnUse" x1="284.5204" y1="254.7419" x2="331.4731" y2="281.6508" gradientTransform="matrix(-1 0 0 1 626.9286 0)">
			<stop  offset="0" style="stop-color:#545557"/>
			<stop  offset="0.3347" style="stop-color:#FFFFFF"/>
			<stop  offset="0.586" style="stop-color:#808184"/>
			<stop  offset="0.814" style="stop-color:#9C9C9C"/>
			<stop  offset="1" style="stop-color:#505050"/>
		</linearGradient>
		<path class="st17" d="M330.9,229.9l-28.4-7.1l-9.9,12.7c0,0,15.4,39.3,18.5,39.4c0,0-5.8,50.8,11.7,45.7c0,0,7.1-1.1,7.3-16.7
			c0.1-4.9-0.6-11.3-2.4-19.5l4.1,20.9l2.7-0.2c0,0,6.8-22.4-4.9-30.3L330.9,229.9z"/>
	</g>
</g>
<g class="st0">
	<g class="st7">
		<linearGradient id="SVGID_17_" gradientUnits="userSpaceOnUse" x1="383.6416" y1="314.4017" x2="344.4945" y2="336.8372">
			<stop  offset="0" style="stop-color:#545557"/>
			<stop  offset="0.3347" style="stop-color:#FFFFFF"/>
			<stop  offset="0.586" style="stop-color:#808184"/>
			<stop  offset="0.814" style="stop-color:#9C9C9C"/>
			<stop  offset="1" style="stop-color:#505050"/>
		</linearGradient>
		<polygon class="st18" points="388,317.9 378.9,355.2 346.5,342.2 352.4,294.2 		"/>
		<linearGradient id="SVGID_18_" gradientUnits="userSpaceOnUse" x1="387.1491" y1="340.0607" x2="338.9296" y2="367.6956">
			<stop  offset="0" style="stop-color:#545557"/>
			<stop  offset="0.3347" style="stop-color:#FFFFFF"/>
			<stop  offset="0.586" style="stop-color:#808184"/>
			<stop  offset="0.814" style="stop-color:#9C9C9C"/>
			<stop  offset="1" style="stop-color:#505050"/>
		</linearGradient>
		<path class="st19" d="M336.6,317.4c0,0,31.8-7.6,51.4,19.1l-4.4,56.9c0,0-23.8,17.2-29.7,2.4s-5-21.9-5-21.9L336.6,317.4z"/>
	</g>
	<linearGradient id="SVGID_19_" gradientUnits="userSpaceOnUse" x1="393.5575" y1="490.9499" x2="335.4332" y2="524.2614">
		<stop  offset="0" style="stop-color:#545557"/>
		<stop  offset="0.3347" style="stop-color:#FFFFFF"/>
		<stop  offset="0.586" style="stop-color:#808184"/>
		<stop  offset="0.814" style="stop-color:#9C9C9C"/>
		<stop  offset="1" style="stop-color:#505050"/>
	</linearGradient>
	<path class="st20" d="M346.5,538.6c0,0-20.5-4.7,2.9-26.4c0,0,12.1-28.4,11.6-31.7c-0.6-3.3,33.6,2.6,33,5.3s6.9,22.5,0,26.1
		c-6.9,3.6-17,12.7-20.8,16.3C369.3,531.8,361.9,544.9,346.5,538.6z"/>
	<linearGradient id="SVGID_20_" gradientUnits="userSpaceOnUse" x1="404.0366" y1="414.6426" x2="341.2913" y2="450.6024">
		<stop  offset="0" style="stop-color:#545557"/>
		<stop  offset="0.3347" style="stop-color:#FFFFFF"/>
		<stop  offset="0.586" style="stop-color:#808184"/>
		<stop  offset="0.814" style="stop-color:#9C9C9C"/>
		<stop  offset="1" style="stop-color:#505050"/>
	</linearGradient>
	<path class="st21" d="M347,377.7c0,0,1.2,2.1,3.9,2.4c2.7,0.3,8-4.1,8-4.1s11,4.8,16.6,4.2c5.6-0.6,9.2-5.6,9.2-5.6
		s1.8,22.8,0,23.7s3.6,7.7,2.4,14.2s7.5-9.5,0.2,55.1c0,0,2.1,7.3,5.9,17.5c0.7,1.8-0.1,3.1,0.8,5l-9,3.3c0,0,8-5.6-22.2-8
		c0,0-3.4,1.8-3.6-1c-0.1-1.9,5.3-6.3,5.3-9.1c0-12.4-4.6-29.4-6.5-32.6c-3-5-5.3-28.1-3.3-29.9S343.8,406.1,347,377.7z"/>
</g>
<g class="st0">
	<g class="st7">
		<linearGradient id="SVGID_21_" gradientUnits="userSpaceOnUse" x1="446.1766" y1="311.1719" x2="404.2298" y2="335.2119">
			<stop  offset="0" style="stop-color:#545557"/>
			<stop  offset="0.3347" style="stop-color:#FFFFFF"/>
			<stop  offset="0.586" style="stop-color:#808184"/>
			<stop  offset="0.814" style="stop-color:#9C9C9C"/>
			<stop  offset="1" style="stop-color:#505050"/>
		</linearGradient>
		<polygon class="st22" points="450.8,315 441.1,354.9 406.4,340.9 412.7,289.5 		"/>
		<linearGradient id="SVGID_22_" gradientUnits="userSpaceOnUse" x1="449.9349" y1="338.666" x2="398.2668" y2="368.2773">
			<stop  offset="0" style="stop-color:#545557"/>
			<stop  offset="0.3347" style="stop-color:#FFFFFF"/>
			<stop  offset="0.586" style="stop-color:#808184"/>
			<stop  offset="0.814" style="stop-color:#9C9C9C"/>
			<stop  offset="1" style="stop-color:#505050"/>
		</linearGradient>
		<path class="st23" d="M395.7,314.4c0,0,34.1-8.1,55.1,20.5l-4.7,61c0,0-25.5,18.4-31.8,2.6c-6.3-15.9-5.4-23.5-5.4-23.5
			L395.7,314.4z"/>
	</g>
	<linearGradient id="SVGID_23_" gradientUnits="userSpaceOnUse" x1="456.8017" y1="500.3467" x2="394.5204" y2="536.0405">
		<stop  offset="0" style="stop-color:#545557"/>
		<stop  offset="0.3347" style="stop-color:#FFFFFF"/>
		<stop  offset="0.586" style="stop-color:#808184"/>
		<stop  offset="0.814" style="stop-color:#9C9C9C"/>
		<stop  offset="1" style="stop-color:#505050"/>
	</linearGradient>
	<path class="st24" d="M406.4,551.4c0,0-21.9-5.1,3.1-28.3c0,0,13-30.5,12.4-34c-0.6-3.5,36,2.8,35.3,5.7c-0.6,3,7.4,24.1,0,27.9
		c-7.4,3.8-18.2,13.7-22.3,17.5C430.8,544.1,422.9,558.1,406.4,551.4z"/>
	<linearGradient id="SVGID_24_" gradientUnits="userSpaceOnUse" x1="468.0302" y1="418.582" x2="400.7974" y2="457.1136">
		<stop  offset="0" style="stop-color:#545557"/>
		<stop  offset="0.3347" style="stop-color:#FFFFFF"/>
		<stop  offset="0.586" style="stop-color:#808184"/>
		<stop  offset="0.814" style="stop-color:#9C9C9C"/>
		<stop  offset="1" style="stop-color:#505050"/>
	</linearGradient>
	<path class="st25" d="M406.9,379c0,0,1.3,2.3,4.2,2.6c2.9,0.3,8.6-4.4,8.6-4.4s11.7,5.1,17.8,4.5s9.8-6,9.8-6s1.9,24.4,0,25.4
		c-1.9,1,3.8,8.3,2.5,15.2c-1.3,7,8-10.2,0.2,59.1c0,0,2.3,7.8,6.4,18.7c0.7,1.9-0.1,3.3,0.8,5.4l-9.6,3.5c0,0,8.6-6-23.8-8.6
		c0,0-3.6,1.9-3.8-1c-0.1-2,5.7-6.8,5.7-9.8c0-13.3-5-31.5-7-34.9c-3.2-5.4-5.7-30.2-3.5-32.1C417.5,414.6,403.5,409.5,406.9,379z"
		/>
</g>
</svg>
