<svg id="Layer_1" data-name="Layer 1" xmlns="http://www.w3.org/2000/svg" viewBox="0 0 1203.12 438.04"><defs><style>.cls-1{fill:#87542a;}.cls-2{fill:#53c41e;}.cls-3{fill:#663c1e;}</style></defs><title>ground</title><rect class="cls-1" width="1203.12" height="438.04"/><path class="cls-2" d="M79,216s84,144,260,54,202-42,202-42,58,50,212,48,188-60.79,188-60.79S999,142,1017,230s265-14,265-14l.12-63H79Z" transform="translate(-78.99 -152.96)"/><path class="cls-3" d="M139,456s44-110,90-84,18,142,18,142S147,528,139,456Z" transform="translate(-78.99 -152.96)"/><path class="cls-3" d="M401,382s30.1-92,76.05-24S427,414,401,382Z" transform="translate(-78.99 -152.96)"/><path class="cls-3" d="M543,528s80-156,194-32S543,528,543,528Z" transform="translate(-78.99 -152.96)"/><path class="cls-3" d="M825,370s154-108,176-14S825,370,825,370Z" transform="translate(-78.99 -152.96)"/><path class="cls-3" d="M1071,504.47s-4,61.2,34,56.36S1219,488,1219,488s-76-78.9-98-46.45S1049,471,1071,504.47Z" transform="translate(-78.99 -152.96)"/></svg>