<?xml version="1.0" encoding="utf-8"?>
<!-- Generator: Adobe Illustrator 22.1.0, SVG Export Plug-In . SVG Version: 6.00 Build 0)  -->
<svg version="1.1" id="Layer_1" xmlns="http://www.w3.org/2000/svg" xmlns:xlink="http://www.w3.org/1999/xlink" x="0px" y="0px"
	 viewBox="0 0 800 800" style="enable-background:new 0 0 800 800;" xml:space="preserve">
<style type="text/css">
	.st0{fill:#FFFFFF;}
</style>
<g>
	<path class="st0" d="M406,663.5c-70.4,0-136.6-27.4-186.3-77.2S142.5,470.4,142.5,400c0-70.4,27.4-136.6,77.2-186.3
		s115.9-77.2,186.3-77.2c70.4,0,136.6,27.4,186.3,77.2s77.2,115.9,77.2,186.3c0,70.4-27.4,136.6-77.2,186.3S476.4,663.5,406,663.5z"
		/>
	<path d="M406,137c35.5,0,69.9,7,102.4,20.7c31.3,13.2,59.4,32.2,83.6,56.4s43.1,52.3,56.4,83.6C662,330.1,669,364.5,669,400
		s-7,69.9-20.7,102.4c-13.2,31.3-32.2,59.4-56.4,83.6s-52.3,43.1-83.6,56.4C475.9,656,441.5,663,406,663s-69.9-7-102.4-20.7
		c-31.3-13.2-59.4-32.2-83.6-56.4s-43.1-52.3-56.4-83.6C150,469.9,143,435.5,143,400s7-69.9,20.7-102.4
		c13.2-31.3,32.2-59.4,56.4-83.6s52.3-43.1,83.6-56.4C336.1,144,370.5,137,406,137 M406,136c-145.8,0-264,118.2-264,264
		s118.2,264,264,264s264-118.2,264-264S551.8,136,406,136L406,136z"/>
</g>
</svg>
